<svg xmlns="http://www.w3.org/2000/svg" width="999.68" height="181.583">
    <path fill="#000000" d="M127.515 130.628a54.22 54.22 0 0 1-88-21.74h140a90.69 90.69 0 1 0-7.43 21.74zm-36.84-94.2a54.34 54.34 0 0 1 51.18 36.23H39.495a54.34 54.34 0 0 1 51.18-36.23zM271.57 50.99a54.2 54.2 0 0 1 88 21.74h-140A90.68 90.68 0 1 0 227 50.99zm36.86 94.2a54.34 54.34 0 0 1-51.19-36.23H359.6a54.35 54.35 0 0 1-51.17 36.23zm201.48-70.37c-18.45-4.38-34.42-8.15-34.42-21.11 0-12.62 13.2-17.11 25.55-17.11a23 23 0 0 1 24.09 14.38h40.09C561.84 20.08 537 .27 501.06.27c-38.62 0-65.6 22-65.6 53.44 0 38.89 33 46.82 59.45 53.18 18.28 4.38 34.06 8.15 34.06 20.76 0 15.74-19.52 17.45-27.91 17.45-10.73 0-23.77-2.61-27.71-14.39h-40.12c3.62 31.38 29.32 50.72 67.83 50.72 40.65 0 67.93-21.61 67.93-53.78.01-38.76-32.75-46.56-59.08-52.83zm218.93 55.88a54.22 54.22 0 0 1-88-21.74h140a90.69 90.69 0 1 0-7.43 21.74zM692 36.5a54.34 54.34 0 0 1 51.18 36.23H640.82A54.34 54.34 0 0 1 692 36.5zm254.23 94.2a54.22 54.22 0 0 1-88.05-21.74h140a90.69 90.69 0 1 0-7.43 21.74zm-36.86-94.2a54.34 54.34 0 0 1 51.18 36.23H858.2a54.35 54.35 0 0 1 51.17-36.23z"/>
</svg>
